# xmcd
#
# Track frame offsets:
#	150
#	16532
#	36002
#	53220
#	74860
#	94230
#	103625
#	119180
#	140597
#	157012
#
# Disc length: 2726 seconds
#
# Revision: 4
# Processed by: cddbd v1.5PL3 Copyright (c) Steve Scherf et al.
# Submitted via: CDex 1.50Beta5
#
DISCID=900aa40a
DTITLE=Sfeve Cole - Ny La
DYEAR=2003
DGENRE=Jazz
TTITLE0=Ny La
TTITLE1=Everyday
TTITLE2=Tonight It's On
TTITLE3=Love Letters
TTITLE4=Off Broadway
TTITLE5=Interlude IV
TTITLE6=Every Little Thing
TTITLE7=Missing You
TTITLE8=Close Your Eyes
TTITLE9=Keep It Live
EXTD=
EXTT0=
EXTT1=
EXTT2=
EXTT3=
EXTT4=
EXTT5=
EXTT6=
EXTT7=
EXTT8=
EXTT9=
PLAYORDER=
